  0
SECTION
  2
HEADER
  9
$ACADVER
  1
AC1009
  9
$INSBASE
 10
0.0
 20
0.0
 30
0.0
  9
$EXTMIN
 10
0.0
 20
0.0
 30
0.0
  9
$EXTMAX
 10
0.0
 20
0.0
 30
0.0
  0
ENDSEC
  0
SECTION
  2
TABLES
  0
TABLE
  2
VPORT
 70
0
  0
ENDTAB
  0
TABLE
  2
LTYPE
 70
1
  0
LTYPE
  2
CONTINUOUS
 70
0
  3
Solid line
 72
65
 73
0
 40
0.0
  0
ENDTAB
  0
TABLE
  2
LAYER
 70
1
  0
LAYER
  2
0
 70
64
 62
7
  6
continuous
  0
ENDTAB
  0
TABLE
  2
STYLE
 70
1
  0
STYLE
  2
STANDARD
 70
0
 40
0
 41
1.0
 50
0.0
 71
0
 42
1
 3
ARIAL.TTF
 4

  0
ENDTAB
  0
TABLE
  2
VIEW
 70
0
  0
ENDTAB
  0
ENDSEC
  0
SECTION
  2
BLOCKS
  0
ENDSEC
  0
SECTION
  2
ENTITIES
  0
CIRCLE
  8
0
 62
0
 10
-32.30825115772533
 20
-20.004422189339525
 30
0.0
 40
1.5
  0
POLYLINE
  8
0
 62
0
 70
1
 66
1
 10
0.0
 20
0.0
 30
0.0
  0
VERTEX
  8
0
 10
47.5
 20
0.0
 30
0.0
  0
VERTEX
  8
0
 10
44.292430896706904
 20
17.158979143889763
 30
0.0
  0
VERTEX
  8
0
 10
35.10292356798131
 20
32.00054307321147
 30
0.0
  0
VERTEX
  8
0
 10
21.17257189938557
 20
42.52025633936546
 30
0.0
  0
VERTEX
  8
0
 10
4.382747074506846
 20
47.297373374014136
 30
0.0
  0
VERTEX
  8
0
 10
-12.998992028423936
 20
45.686718050708905
 30
0.0
  0
VERTEX
  8
0
 10
-28.625145228014674
 20
37.90581829581138
 30
0.0
  0
VERTEX
  8
0
 10
-40.385313947156675
 20
25.0055277366744
 30
0.0
  0
VERTEX
  8
0
 10
-46.69122223498533
 20
8.728102096287092
 30
0.0
  0
VERTEX
  8
0
 10
-46.69122223498533
 20
-8.728102096287081
 30
0.0
  0
VERTEX
  8
0
 10
-40.38531394715667
 20
-25.005527736674402
 30
0.0
  0
VERTEX
  8
0
 10
-28.625145228014684
 20
-37.90581829581138
 30
0.0
  0
VERTEX
  8
0
 10
-12.998992028423947
 20
-45.686718050708905
 30
0.0
  0
VERTEX
  8
0
 10
4.382747074506823
 20
-47.29737337401414
 30
0.0
  0
VERTEX
  8
0
 10
21.17257189938558
 20
-42.52025633936545
 30
0.0
  0
VERTEX
  8
0
 10
35.102923567981314
 20
-32.00054307321146
 30
0.0
  0
VERTEX
  8
0
 10
44.292430896706904
 20
-17.15897914388977
 30
0.0
  0
SEQEND
  8
0
  0
CIRCLE
  8
0
 62
0
 10
0.0
 20
0.0
 30
0.0
 40
20.0
  0
POLYLINE
  8
0
 62
0
 70
0
 66
1
 10
0.0
 20
0.0
 30
0.0
  0
VERTEX
  8
0
 10
28.13774773368344
 20
37.26039970628846
 30
0.0
  0
VERTEX
  8
0
 10
-3.552713678800501e-15
 20
-1.0877048587575128e-31
 30
0.0
  0
SEQEND
  8
0
  0
POLYLINE
  8
0
 62
0
 70
0
 66
1
 10
0.0
 20
0.0
 30
0.0
  0
VERTEX
  8
0
 10
-4.308122476958546
 20
46.492045712361524
 30
0.0
  0
VERTEX
  8
0
 10
0.0
 20
0.0
 30
0.0
  0
SEQEND
  8
0
  0
POLYLINE
  8
0
 62
0
 70
0
 66
1
 10
0.0
 20
0.0
 30
0.0
  0
VERTEX
  8
0
 10
-20.812068628219297
 20
41.796268173260145
 30
0.0
  0
VERTEX
  8
0
 10
0.0
 20
0.0
 30
0.0
  0
SEQEND
  8
0
  0
POLYLINE
  8
0
 62
0
 70
0
 66
1
 10
0.0
 20
0.0
 30
0.0
  0
VERTEX
  8
0
 10
-46.69122223498533
 20
-2.8590127929176255e-15
 30
0.0
  0
VERTEX
  8
0
 10
-1.2075949781892446e-47
 20
3.944304526105059e-31
 30
0.0
  0
SEQEND
  8
0
  0
POLYLINE
  8
0
 62
0
 70
0
 66
1
 10
0.0
 20
0.0
 30
0.0
  0
VERTEX
  8
0
 10
12.777659486946211
 20
44.908814856689794
 30
0.0
  0
VERTEX
  8
0
 10
1.7763568394002505e-15
 20
5.438524293787564e-32
 30
0.0
  0
SEQEND
  8
0
  0
POLYLINE
  8
0
 62
0
 70
0
 66
1
 10
0.0
 20
0.0
 30
0.0
  0
VERTEX
  8
0
 10
39.697677232344105
 20
24.57976110855062
 30
0.0
  0
VERTEX
  8
0
 10
0.0
 20
0.0
 30
0.0
  0
SEQEND
  8
0
  0
POLYLINE
  8
0
 62
0
 70
0
 66
1
 10
0.0
 20
0.0
 30
0.0
  0
VERTEX
  8
0
 10
39.697677232344105
 20
-24.57976110855062
 30
0.0
  0
VERTEX
  8
0
 10
0.0
 20
0.0
 30
0.0
  0
SEQEND
  8
0
  0
POLYLINE
  8
0
 62
0
 70
0
 66
1
 10
0.0
 20
0.0
 30
0.0
  0
VERTEX
  8
0
 10
-43.53826809107101
 20
16.866814916480735
 30
0.0
  0
VERTEX
  8
0
 10
0.0
 20
0.0
 30
0.0
  0
SEQEND
  8
0
  0
POLYLINE
  8
0
 62
0
 70
0
 66
1
 10
0.0
 20
0.0
 30
0.0
  0
VERTEX
  8
0
 10
45.89621544835346
 20
8.579489571944885
 30
0.0
  0
VERTEX
  8
0
 10
0.0
 20
0.0
 30
0.0
  0
SEQEND
  8
0
  0
POLYLINE
  8
0
 62
0
 70
0
 66
1
 10
0.0
 20
0.0
 30
0.0
  0
VERTEX
  8
0
 10
-34.50522958758567
 20
31.455673016242894
 30
0.0
  0
VERTEX
  8
0
 10
-1.0877048587575128e-31
 20
3.552713678800501e-15
 30
0.0
  0
SEQEND
  8
0
  0
POLYLINE
  8
0
 62
0
 70
0
 66
1
 10
0.0
 20
0.0
 30
0.0
  0
VERTEX
  8
0
 10
-43.538268091071004
 20
-16.86681491648073
 30
0.0
  0
VERTEX
  8
0
 10
0.0
 20
0.0
 30
0.0
  0
SEQEND
  8
0
  0
POLYLINE
  8
0
 62
0
 70
0
 66
1
 10
0.0
 20
0.0
 30
0.0
  0
VERTEX
  8
0
 10
-4.308122476958576
 20
-46.492045712361524
 30
0.0
  0
VERTEX
  8
0
 10
0.0
 20
0.0
 30
0.0
  0
SEQEND
  8
0
  0
POLYLINE
  8
0
 62
0
 70
0
 66
1
 10
0.0
 20
0.0
 30
0.0
  0
VERTEX
  8
0
 10
-20.812068628219315
 20
-41.79626817326014
 30
0.0
  0
VERTEX
  8
0
 10
0.0
 20
0.0
 30
0.0
  0
SEQEND
  8
0
  0
POLYLINE
  8
0
 62
0
 70
0
 66
1
 10
0.0
 20
0.0
 30
0.0
  0
VERTEX
  8
0
 10
-34.50522958758568
 20
-31.455673016242887
 30
0.0
  0
VERTEX
  8
0
 10
0.0
 20
0.0
 30
0.0
  0
SEQEND
  8
0
  0
POLYLINE
  8
0
 62
0
 70
0
 66
1
 10
0.0
 20
0.0
 30
0.0
  0
VERTEX
  8
0
 10
12.77765948694621
 20
-44.9088148566898
 30
0.0
  0
VERTEX
  8
0
 10
-1.7763568394002505e-15
 20
-5.438524293787564e-32
 30
0.0
  0
SEQEND
  8
0
  0
POLYLINE
  8
0
 62
0
 70
0
 66
1
 10
0.0
 20
0.0
 30
0.0
  0
VERTEX
  8
0
 10
28.137747733683447
 20
-37.26039970628845
 30
0.0
  0
VERTEX
  8
0
 10
0.0
 20
0.0
 30
0.0
  0
SEQEND
  8
0
  0
POLYLINE
  8
0
 62
0
 70
0
 66
1
 10
0.0
 20
0.0
 30
0.0
  0
VERTEX
  8
0
 10
45.89621544835345
 20
-8.579489571944876
 30
0.0
  0
VERTEX
  8
0
 10
0.0
 20
0.0
 30
0.0
  0
SEQEND
  8
0
  0
CIRCLE
  8
0
 62
0
 10
-32.308251157725344
 20
20.00442218933951
 30
0.0
 40
1.5
  0
CIRCLE
  8
0
 62
0
 10
16.938057519508458
 20
34.016205071492365
 30
0.0
 40
1.5
  0
CIRCLE
  8
0
 62
0
 10
16.938057519508458
 20
-34.01620507149236
 30
0.0
 40
1.5
  0
CIRCLE
  8
0
 62
0
 10
-10.399193622739162
 20
-36.54937444056712
 30
0.0
 40
1.5
  0
CIRCLE
  8
0
 62
0
 10
28.08233885438505
 20
-25.600434458569165
 30
0.0
 40
1.5
  0
CIRCLE
  8
0
 62
0
 10
-37.35297778798827
 20
6.98248167702967
 30
0.0
 40
1.5
  0
CIRCLE
  8
0
 62
0
 10
-37.35297778798827
 20
-6.982481677029671
 30
0.0
 40
1.5
  0
CIRCLE
  8
0
 62
0
 10
-22.900116182411747
 20
-30.324654636649097
 30
0.0
 40
1.5
  0
CIRCLE
  8
0
 62
0
 10
3.5061976596054816
 20
37.83789869921131
 30
0.0
 40
1.5
  0
CIRCLE
  8
0
 62
0
 10
-22.900116182411733
 20
30.324654636649104
 30
0.0
 40
1.5
  0
CIRCLE
  8
0
 62
0
 10
-10.399193622739146
 20
36.54937444056712
 30
0.0
 40
1.5
  0
CIRCLE
  8
0
 62
0
 10
3.5061976596054545
 20
-37.83789869921131
 30
0.0
 40
1.5
  0
CIRCLE
  8
0
 62
0
 10
28.082338854385043
 20
25.600434458569172
 30
0.0
 40
1.5
  0
CIRCLE
  8
0
 62
0
 10
35.43394471736552
 20
13.727183315111816
 30
0.0
 40
1.5
  0
CIRCLE
  8
0
 62
0
 10
35.414237763220164
 20
-13.76307932114633
 30
0.0
 40
1.5
  0
CIRCLE
  8
0
 62
0
 10
38.0
 20
0.0
 30
0.0
 40
1.5
  0
ENDSEC
  0
EOF
