  0
SECTION
  2
HEADER
  9
$ACADVER
  1
AC1009
  9
$INSBASE
 10
0.0
 20
0.0
 30
0.0
  9
$EXTMIN
 10
0.0
 20
0.0
 30
0.0
  9
$EXTMAX
 10
0.0
 20
0.0
 30
0.0
  0
ENDSEC
  0
SECTION
  2
TABLES
  0
TABLE
  2
VPORT
 70
0
  0
ENDTAB
  0
TABLE
  2
LTYPE
 70
1
  0
LTYPE
  2
CONTINUOUS
 70
0
  3
Solid line
 72
65
 73
0
 40
0.0
  0
ENDTAB
  0
TABLE
  2
LAYER
 70
1
  0
LAYER
  2
0
 70
64
 62
7
  6
continuous
  0
ENDTAB
  0
TABLE
  2
STYLE
 70
1
  0
STYLE
  2
STANDARD
 70
0
 40
0
 41
1.0
 50
0.0
 71
0
 42
1
 3
ARIAL.TTF
 4

  0
ENDTAB
  0
TABLE
  2
VIEW
 70
0
  0
ENDTAB
  0
ENDSEC
  0
SECTION
  2
BLOCKS
  0
ENDSEC
  0
SECTION
  2
ENTITIES
  0
CIRCLE
  8
0
 62
0
 10
10.02624805479276
 20
-8.069608880605125
 30
0.0
 40
1.6
  0
POLYLINE
  8
0
 62
0
 70
0
 66
1
 10
0.0
 20
0.0
 30
0.0
  0
VERTEX
  8
0
 10
0.0
 20
0.0
 30
0.0
  0
VERTEX
  8
0
 10
-20.824345968736438
 20
42.1348622280217
 30
0.0
  0
SEQEND
  8
0
  0
POLYLINE
  8
0
 62
0
 70
0
 66
1
 10
0.0
 20
0.0
 30
0.0
  0
VERTEX
  8
0
 10
0.0
 20
0.0
 30
0.0
  0
VERTEX
  8
0
 10
23.5
 20
0.0
 30
0.0
  0
SEQEND
  8
0
  0
CIRCLE
  8
0
 62
0
 10
-22.012684549021788
 20
30.974856237685067
 30
0.0
 40
1.6
  0
POLYLINE
  8
0
 62
0
 70
0
 66
1
 10
0.0
 20
0.0
 30
0.0
  0
VERTEX
  8
0
 10
0.0
 20
0.0
 30
0.0
  0
VERTEX
  8
0
 10
-32.94273542209298
 20
33.52277111024655
 30
0.0
  0
SEQEND
  8
0
  0
POLYLINE
  8
0
 62
0
 70
1
 66
1
 10
0.0
 20
0.0
 30
0.0
  0
VERTEX
  8
0
 10
-10.532767628372591
 20
19.167310872595202
 30
0.0
  0
VERTEX
  8
0
 10
-8.893404222323127
 20
15.850311080176471
 30
0.0
  0
VERTEX
  8
0
 10
-7.19008000459459
 20
16.69214634274241
 30
0.0
  0
VERTEX
  8
0
 10
-8.829443410644053
 20
20.009146135161142
 30
0.0
  0
SEQEND
  8
0
  0
POLYLINE
  8
0
 62
0
 70
1
 66
1
 10
0.0
 20
0.0
 30
0.0
  0
VERTEX
  8
0
 10
11.85
 20
0.95
 30
0.0
  0
VERTEX
  8
0
 10
8.15
 20
0.95
 30
0.0
  0
VERTEX
  8
0
 10
8.15
 20
-0.95
 30
0.0
  0
VERTEX
  8
0
 10
11.85
 20
-0.95
 30
0.0
  0
SEQEND
  8
0
  0
POLYLINE
  8
0
 62
0
 70
1
 66
1
 10
0.0
 20
0.0
 30
0.0
  0
VERTEX
  8
0
 10
-15.992455351648209
 20
14.918658512934016
 30
0.0
  0
VERTEX
  8
0
 10
-13.399091073738761
 20
12.279631851063543
 30
0.0
  0
VERTEX
  8
0
 10
-12.043915220345816
 20
13.61135945323326
 30
0.0
  0
VERTEX
  8
0
 10
-14.637279498255264
 20
16.250386115103733
 30
0.0
  0
SEQEND
  8
0
  0
POLYLINE
  8
0
 62
0
 70
0
 66
1
 10
0.0
 20
0.0
 30
0.0
  0
VERTEX
  8
0
 10
0.0
 20
0.0
 30
0.0
  0
VERTEX
  8
0
 10
-41.76500993478259
 20
21.556529060762813
 30
0.0
  0
SEQEND
  8
0
  0
CIRCLE
  8
0
 62
0
 10
-30.585964299524726
 20
22.54991769094067
 30
0.0
 40
1.6
  0
POLYLINE
  8
0
 62
0
 70
1
 66
1
 10
0.0
 20
0.0
 30
0.0
  0
VERTEX
  8
0
 10
-19.85200361027073
 20
9.177306394460086
 30
0.0
  0
VERTEX
  8
0
 10
-16.564119849447422
 20
7.480303042868119
 30
0.0
  0
VERTEX
  8
0
 10
-15.692685695927223
 20
9.168675784912521
 30
0.0
  0
VERTEX
  8
0
 10
-18.980569456750533
 20
10.865679136504488
 30
0.0
  0
SEQEND
  8
0
  0
CIRCLE
  8
0
 62
0
 10
-36.09893795793679
 20
11.868726903464847
 30
0.0
 40
1.6
  0
POLYLINE
  8
0
 62
0
 70
0
 66
1
 10
0.0
 20
0.0
 30
0.0
  0
VERTEX
  8
0
 10
0.0
 20
0.0
 30
0.0
  0
VERTEX
  8
0
 10
-46.40844891729284
 20
7.433429160960728
 30
0.0
  0
SEQEND
  8
0
  0
POLYLINE
  8
0
 62
0
 70
1
 66
1
 10
0.0
 20
0.0
 30
0.0
  0
VERTEX
  8
0
 10
-21.72524184139917
 20
2.5177106530971
 30
0.0
  0
VERTEX
  8
0
 10
-18.0718107564208
 20
1.932525804255511
 30
0.0
  0
VERTEX
  8
0
 10
-17.771310428637282
 20
3.8086120370822423
 30
0.0
  0
VERTEX
  8
0
 10
-21.424741513615654
 20
4.393796885923831
 30
0.0
  0
SEQEND
  8
0
  0
POLYLINE
  8
0
 62
0
 70
0
 66
1
 10
0.0
 20
0.0
 30
0.0
  0
VERTEX
  8
0
 10
0.0
 20
0.0
 30
0.0
  0
VERTEX
  8
0
 10
-46.408448917292844
 20
-7.433429160960715
 30
0.0
  0
SEQEND
  8
0
  0
CIRCLE
  8
0
 62
0
 10
-38.0
 20
4.653657836759942e-15
 30
0.0
 40
1.6
  0
POLYLINE
  8
0
 62
0
 70
1
 66
1
 10
0.0
 20
0.0
 30
0.0
  0
VERTEX
  8
0
 10
-21.424741513615658
 20
-4.393796885923826
 30
0.0
  0
VERTEX
  8
0
 10
-17.771310428637285
 20
-3.808612037082238
 30
0.0
  0
VERTEX
  8
0
 10
-18.071810756420803
 20
-1.9325258042555058
 30
0.0
  0
VERTEX
  8
0
 10
-21.725241841399175
 20
-2.5177106530970943
 30
0.0
  0
SEQEND
  8
0
  0
CIRCLE
  8
0
 62
0
 10
-36.0989379579368
 20
-11.868726903464824
 30
0.0
 40
1.6
  0
POLYLINE
  8
0
 62
0
 70
0
 66
1
 10
0.0
 20
0.0
 30
0.0
  0
VERTEX
  8
0
 10
0.0
 20
0.0
 30
0.0
  0
VERTEX
  8
0
 10
-41.765009934782604
 20
-21.556529060762784
 30
0.0
  0
SEQEND
  8
0
  0
POLYLINE
  8
0
 62
0
 70
1
 66
1
 10
0.0
 20
0.0
 30
0.0
  0
VERTEX
  8
0
 10
-18.98056945675054
 20
-10.865679136504475
 30
0.0
  0
VERTEX
  8
0
 10
-15.692685695927228
 20
-9.168675784912512
 30
0.0
  0
VERTEX
  8
0
 10
-16.564119849447426
 20
-7.480303042868109
 30
0.0
  0
VERTEX
  8
0
 10
-19.85200361027074
 20
-9.177306394460073
 30
0.0
  0
SEQEND
  8
0
  0
POLYLINE
  8
0
 62
0
 70
0
 66
1
 10
0.0
 20
0.0
 30
0.0
  0
VERTEX
  8
0
 10
0.0
 20
0.0
 30
0.0
  0
VERTEX
  8
0
 10
-32.942735422093
 20
-33.522771110246524
 30
0.0
  0
SEQEND
  8
0
  0
CIRCLE
  8
0
 62
0
 10
-30.58596429952475
 20
-22.549917690940635
 30
0.0
 40
1.6
  0
POLYLINE
  8
0
 62
0
 70
1
 66
1
 10
0.0
 20
0.0
 30
0.0
  0
VERTEX
  8
0
 10
-14.637279498255273
 20
-16.25038611510372
 30
0.0
  0
VERTEX
  8
0
 10
-12.043915220345824
 20
-13.611359453233248
 30
0.0
  0
VERTEX
  8
0
 10
-13.399091073738768
 20
-12.279631851063533
 30
0.0
  0
VERTEX
  8
0
 10
-15.992455351648218
 20
-14.918658512934003
 30
0.0
  0
SEQEND
  8
0
  0
POLYLINE
  8
0
 62
0
 70
0
 66
1
 10
0.0
 20
0.0
 30
0.0
  0
VERTEX
  8
0
 10
0.0
 20
0.0
 30
0.0
  0
VERTEX
  8
0
 10
-20.82434596873645
 20
-42.1348622280217
 30
0.0
  0
SEQEND
  8
0
  0
CIRCLE
  8
0
 62
0
 10
-22.01268454902179
 20
-30.974856237685064
 30
0.0
 40
1.6
  0
POLYLINE
  8
0
 62
0
 70
1
 66
1
 10
0.0
 20
0.0
 30
0.0
  0
VERTEX
  8
0
 10
-8.829443410644059
 20
-20.009146135161146
 30
0.0
  0
VERTEX
  8
0
 10
-7.190080004594593
 20
-16.692146342742415
 30
0.0
  0
VERTEX
  8
0
 10
-8.89340422232313
 20
-15.850311080176473
 30
0.0
  0
VERTEX
  8
0
 10
-10.532767628372596
 20
-19.167310872595202
 30
0.0
  0
SEQEND
  8
0
  0
CIRCLE
  8
0
 62
0
 10
10.02624805479276
 20
8.069608880605125
 30
0.0
 40
1.6
  0
ENDSEC
  0
EOF
