  0
SECTION
  2
HEADER
  9
$ACADVER
  1
AC1009
  9
$INSBASE
 10
0.0
 20
0.0
 30
0.0
  9
$EXTMIN
 10
0.0
 20
0.0
 30
0.0
  9
$EXTMAX
 10
0.0
 20
0.0
 30
0.0
  0
ENDSEC
  0
SECTION
  2
TABLES
  0
TABLE
  2
VPORT
 70
0
  0
ENDTAB
  0
TABLE
  2
LTYPE
 70
1
  0
LTYPE
  2
CONTINUOUS
 70
0
  3
Solid line
 72
65
 73
0
 40
0.0
  0
ENDTAB
  0
TABLE
  2
LAYER
 70
1
  0
LAYER
  2
0
 70
64
 62
7
  6
continuous
  0
ENDTAB
  0
TABLE
  2
STYLE
 70
1
  0
STYLE
  2
STANDARD
 70
0
 40
0
 41
1.0
 50
0.0
 71
0
 42
1
 3
ARIAL.TTF
 4

  0
ENDTAB
  0
TABLE
  2
VIEW
 70
0
  0
ENDTAB
  0
ENDSEC
  0
SECTION
  2
BLOCKS
  0
ENDSEC
  0
SECTION
  2
ENTITIES
  0
POLYLINE
  8
0
 62
0
 70
0
 66
1
 10
0.0
 20
0.0
 30
0.0
  0
VERTEX
  8
0
 10
0.0
 20
0.0
 30
0.0
  0
VERTEX
  8
0
 10
0.0
 20
8.82456279971288
 30
0.0
  0
SEQEND
  8
0
  0
POLYLINE
  8
0
 62
0
 70
0
 66
1
 10
0.0
 20
0.0
 30
0.0
  0
VERTEX
  8
0
 10
0.0
 20
8.82456279971288
 30
0.0
  0
VERTEX
  8
0
 10
0.0
 20
20.62671125638783
 30
0.0
  0
SEQEND
  8
0
  0
POLYLINE
  8
0
 62
0
 70
0
 66
1
 10
0.0
 20
0.0
 30
0.0
  0
VERTEX
  8
0
 10
-34.2
 20
76.99916746423202
 30
0.0
  0
VERTEX
  8
0
 10
-35.67526855708437
 20
71.49339025438432
 30
0.0
  0
SEQEND
  8
0
  0
POLYLINE
  8
0
 62
0
 70
0
 66
1
 10
0.0
 20
0.0
 30
0.0
  0
VERTEX
  8
0
 10
0.0
 20
44.23100816973773
 30
0.0
  0
VERTEX
  8
0
 10
-57.00000000000001
 20
59.504112138311726
 30
0.0
  0
SEQEND
  8
0
  0
POLYLINE
  8
0
 62
0
 70
1
 66
1
 10
0.0
 20
0.0
 30
0.0
  0
VERTEX
  8
0
 10
46.41715912851784
 20
57.651960844560584
 30
0.0
  0
VERTEX
  8
0
 10
46.90891531421263
 20
55.81670177461135
 30
0.0
  0
VERTEX
  8
0
 10
50.48284087148218
 20
56.77433224149068
 30
0.0
  0
VERTEX
  8
0
 10
49.99108468578739
 20
58.609591311439914
 30
0.0
  0
SEQEND
  8
0
  0
POLYLINE
  8
0
 62
0
 70
0
 66
1
 10
0.0
 20
0.0
 30
0.0
  0
VERTEX
  8
0
 10
-68.4
 20
50.75658447535157
 30
0.0
  0
VERTEX
  8
0
 10
-69.87526855708437
 20
45.25080726550388
 30
0.0
  0
SEQEND
  8
0
  0
CIRCLE
  8
0
 62
0
 10
-47.075268557084364
 20
15.537268764724384
 30
0.0
 40
0.45
  0
POLYLINE
  8
0
 62
0
 70
1
 66
1
 10
0.0
 20
0.0
 30
0.0
  0
VERTEX
  8
0
 10
69.21715912851785
 20
40.15690551864028
 30
0.0
  0
VERTEX
  8
0
 10
69.70891531421263
 20
38.32164644869105
 30
0.0
  0
VERTEX
  8
0
 10
73.28284087148218
 20
39.27927691557038
 30
0.0
  0
VERTEX
  8
0
 10
72.7910846857874
 20
41.11453598551961
 30
0.0
  0
SEQEND
  8
0
  0
POLYLINE
  8
0
 62
0
 70
0
 66
1
 10
0.0
 20
0.0
 30
0.0
  0
VERTEX
  8
0
 10
11.4
 20
94.4942227901523
 30
0.0
  0
VERTEX
  8
0
 10
12.875268557084368
 20
88.98844558030461
 30
0.0
  0
SEQEND
  8
0
  0
POLYLINE
  8
0
 62
0
 70
0
 66
1
 10
0.0
 20
0.0
 30
0.0
  0
VERTEX
  8
0
 10
0.0
 20
32.42885971306278
 30
0.0
  0
VERTEX
  8
0
 10
0.0
 20
44.23100816973773
 30
0.0
  0
SEQEND
  8
0
  0
POLYLINE
  8
0
 62
0
 70
0
 66
1
 10
0.0
 20
0.0
 30
0.0
  0
VERTEX
  8
0
 10
-22.8
 20
85.74669512719215
 30
0.0
  0
VERTEX
  8
0
 10
-21.324731442915635
 20
91.25247233703985
 30
0.0
  0
SEQEND
  8
0
  0
CIRCLE
  8
0
 62
0
 10
-41.37526855708437
 20
25.812106824541935
 30
0.0
 40
0.45
  0
POLYLINE
  8
0
 62
0
 70
0
 66
1
 10
0.0
 20
0.0
 30
0.0
  0
VERTEX
  8
0
 10
-79.80000000000001
 20
42.00905681239142
 30
0.0
  0
VERTEX
  8
0
 10
-81.27526855708437
 20
36.50327960254373
 30
0.0
  0
SEQEND
  8
0
  0
CIRCLE
  8
0
 62
0
 10
-19.950000000000003
 20
20.07122341705125
 30
0.0
 40
1.6
  0
POLYLINE
  8
0
 62
0
 70
0
 66
1
 10
0.0
 20
0.0
 30
0.0
  0
VERTEX
  8
0
 10
-11.4
 20
94.4942227901523
 30
0.0
  0
VERTEX
  8
0
 10
-9.924731442915633
 20
100.0
 30
0.0
  0
SEQEND
  8
0
  0
CIRCLE
  8
0
 62
0
 10
41.37526855708437
 20
25.812106824541935
 30
0.0
 40
0.45
  0
POLYLINE
  8
0
 62
0
 70
0
 66
1
 10
0.0
 20
0.0
 30
0.0
  0
VERTEX
  8
0
 10
34.2
 20
76.99916746423202
 30
0.0
  0
VERTEX
  8
0
 10
32.72473144291563
 20
82.50494467407971
 30
0.0
  0
SEQEND
  8
0
  0
POLYLINE
  8
0
 62
0
 70
0
 66
1
 10
0.0
 20
0.0
 30
0.0
  0
VERTEX
  8
0
 10
0.0
 20
56.033156626412676
 30
0.0
  0
VERTEX
  8
0
 10
-45.6
 20
68.25163980127186
 30
0.0
  0
SEQEND
  8
0
  0
POLYLINE
  8
0
 62
0
 70
0
 66
1
 10
0.0
 20
0.0
 30
0.0
  0
VERTEX
  8
0
 10
0.0
 20
79.63745353976256
 30
0.0
  0
VERTEX
  8
0
 10
22.8
 20
85.74669512719215
 30
0.0
  0
SEQEND
  8
0
  0
CIRCLE
  8
0
 62
0
 10
0.0
 20
95.71980099821874
 30
0.0
 40
0.45
  0
POLYLINE
  8
0
 62
0
 70
0
 66
1
 10
0.0
 20
0.0
 30
0.0
  0
VERTEX
  8
0
 10
0.0
 20
32.42885971306278
 30
0.0
  0
VERTEX
  8
0
 10
-68.4
 20
50.75658447535157
 30
0.0
  0
SEQEND
  8
0
  0
POLYLINE
  8
0
 62
0
 70
0
 66
1
 10
0.0
 20
0.0
 30
0.0
  0
VERTEX
  8
0
 10
0.0
 20
20.62671125638783
 30
0.0
  0
VERTEX
  8
0
 10
0.0
 20
32.42885971306278
 30
0.0
  0
SEQEND
  8
0
  0
POLYLINE
  8
0
 62
0
 70
0
 66
1
 10
0.0
 20
0.0
 30
0.0
  0
VERTEX
  8
0
 10
57.00000000000001
 20
59.504112138311726
 30
0.0
  0
VERTEX
  8
0
 10
55.52473144291564
 20
65.00988934815942
 30
0.0
  0
SEQEND
  8
0
  0
CIRCLE
  8
0
 62
0
 10
8.55
 20
64.22519645003624
 30
0.0
 40
1.6
  0
POLYLINE
  8
0
 62
0
 70
0
 66
1
 10
0.0
 20
0.0
 30
0.0
  0
VERTEX
  8
0
 10
0.0
 20
32.42885971306278
 30
0.0
  0
VERTEX
  8
0
 10
68.4
 20
50.75658447535157
 30
0.0
  0
SEQEND
  8
0
  0
POLYLINE
  8
0
 62
0
 70
0
 66
1
 10
0.0
 20
0.0
 30
0.0
  0
VERTEX
  8
0
 10
0.0
 20
44.23100816973773
 30
0.0
  0
VERTEX
  8
0
 10
57.00000000000001
 20
59.504112138311726
 30
0.0
  0
SEQEND
  8
0
  0
POLYLINE
  8
0
 62
0
 70
1
 66
1
 10
0.0
 20
0.0
 30
0.0
  0
VERTEX
  8
0
 10
-23.61715912851783
 20
75.14701617048087
 30
0.0
  0
VERTEX
  8
0
 10
-24.10891531421262
 20
73.31175710053164
 30
0.0
  0
VERTEX
  8
0
 10
-27.682840871482174
 20
74.26938756741096
 30
0.0
  0
VERTEX
  8
0
 10
-27.191084685787384
 20
76.10464663736019
 30
0.0
  0
SEQEND
  8
0
  0
CIRCLE
  8
0
 62
0
 10
19.950000000000003
 20
20.07122341705125
 30
0.0
 40
1.6
  0
CIRCLE
  8
0
 62
0
 10
12.875268557084366
 20
77.18629712362967
 30
0.0
 40
0.45
  0
POLYLINE
  8
0
 62
0
 70
0
 66
1
 10
0.0
 20
0.0
 30
0.0
  0
VERTEX
  8
0
 10
0.0
 20
67.83530508308762
 30
0.0
  0
VERTEX
  8
0
 10
-34.2
 20
76.99916746423202
 30
0.0
  0
SEQEND
  8
0
  0
POLYLINE
  8
0
 62
0
 70
0
 66
1
 10
0.0
 20
0.0
 30
0.0
  0
VERTEX
  8
0
 10
-57.00000000000001
 20
59.504112138311726
 30
0.0
  0
VERTEX
  8
0
 10
-58.47526855708438
 20
53.99833492846403
 30
0.0
  0
SEQEND
  8
0
  0
POLYLINE
  8
0
 62
0
 70
0
 66
1
 10
0.0
 20
0.0
 30
0.0
  0
VERTEX
  8
0
 10
0.0
 20
67.83530508308762
 30
0.0
  0
VERTEX
  8
0
 10
0.0
 20
79.63745353976256
 30
0.0
  0
SEQEND
  8
0
  0
CIRCLE
  8
0
 62
0
 10
35.675268557084365
 20
36.08694488435948
 30
0.0
 40
0.45
  0
POLYLINE
  8
0
 62
0
 70
0
 66
1
 10
0.0
 20
0.0
 30
0.0
  0
VERTEX
  8
0
 10
57.00000000000001
 20
59.504112138311726
 30
0.0
  0
VERTEX
  8
0
 10
58.47526855708438
 20
53.99833492846403
 30
0.0
  0
SEQEND
  8
0
  0
POLYLINE
  8
0
 62
0
 70
0
 66
1
 10
0.0
 20
0.0
 30
0.0
  0
VERTEX
  8
0
 10
-34.2
 20
76.99916746423202
 30
0.0
  0
VERTEX
  8
0
 10
-32.72473144291563
 20
82.50494467407971
 30
0.0
  0
SEQEND
  8
0
  0
POLYLINE
  8
0
 62
0
 70
0
 66
1
 10
0.0
 20
0.0
 30
0.0
  0
VERTEX
  8
0
 10
0.0
 20
67.83530508308762
 30
0.0
  0
VERTEX
  8
0
 10
34.2
 20
76.99916746423202
 30
0.0
  0
SEQEND
  8
0
  0
POLYLINE
  8
0
 62
0
 70
0
 66
1
 10
0.0
 20
0.0
 30
0.0
  0
VERTEX
  8
0
 10
0.0
 20
56.033156626412676
 30
0.0
  0
VERTEX
  8
0
 10
0.0
 20
67.83530508308762
 30
0.0
  0
SEQEND
  8
0
  0
CIRCLE
  8
0
 62
0
 10
-35.675268557084365
 20
36.08694488435948
 30
0.0
 40
0.45
  0
POLYLINE
  8
0
 62
0
 70
1
 66
1
 10
0.0
 20
0.0
 30
0.0
  0
VERTEX
  8
0
 10
23.61715912851783
 20
75.14701617048087
 30
0.0
  0
VERTEX
  8
0
 10
24.10891531421262
 20
73.31175710053164
 30
0.0
  0
VERTEX
  8
0
 10
27.682840871482174
 20
74.26938756741096
 30
0.0
  0
VERTEX
  8
0
 10
27.191084685787384
 20
76.10464663736019
 30
0.0
  0
SEQEND
  8
0
  0
POLYLINE
  8
0
 62
0
 70
0
 66
1
 10
0.0
 20
0.0
 30
0.0
  0
VERTEX
  8
0
 10
-11.4
 20
94.4942227901523
 30
0.0
  0
VERTEX
  8
0
 10
-12.875268557084368
 20
88.98844558030461
 30
0.0
  0
SEQEND
  8
0
  0
POLYLINE
  8
0
 62
0
 70
0
 66
1
 10
0.0
 20
0.0
 30
0.0
  0
VERTEX
  8
0
 10
0.0
 20
20.62671125638783
 30
0.0
  0
VERTEX
  8
0
 10
79.80000000000001
 20
42.00905681239142
 30
0.0
  0
SEQEND
  8
0
  0
POLYLINE
  8
0
 62
0
 70
1
 66
1
 10
0.0
 20
0.0
 30
0.0
  0
VERTEX
  8
0
 10
-80.61715912851784
 20
31.40937785568012
 30
0.0
  0
VERTEX
  8
0
 10
-81.10891531421262
 20
29.57411878573089
 30
0.0
  0
VERTEX
  8
0
 10
-84.68284087148217
 20
30.531749252610215
 30
0.0
  0
VERTEX
  8
0
 10
-84.19108468578739
 20
32.36700832255944
 30
0.0
  0
SEQEND
  8
0
  0
CIRCLE
  8
0
 62
0
 10
-24.275268557084367
 20
56.63662100399458
 30
0.0
 40
0.45
  0
POLYLINE
  8
0
 62
0
 70
1
 66
1
 10
0.0
 20
0.0
 30
0.0
  0
VERTEX
  8
0
 10
-46.41715912851784
 20
57.651960844560584
 30
0.0
  0
VERTEX
  8
0
 10
-46.90891531421263
 20
55.81670177461135
 30
0.0
  0
VERTEX
  8
0
 10
-50.48284087148218
 20
56.77433224149068
 30
0.0
  0
VERTEX
  8
0
 10
-49.99108468578739
 20
58.609591311439914
 30
0.0
  0
SEQEND
  8
0
  0
CIRCLE
  8
0
 62
0
 10
-7.175268557084366
 20
87.46113518344721
 30
0.0
 40
0.45
  0
POLYLINE
  8
0
 62
0
 70
0
 66
1
 10
0.0
 20
0.0
 30
0.0
  0
VERTEX
  8
0
 10
22.8
 20
85.74669512719215
 30
0.0
  0
VERTEX
  8
0
 10
24.27526855708437
 20
80.24091791734446
 30
0.0
  0
SEQEND
  8
0
  0
CIRCLE
  8
0
 62
0
 10
24.275268557084367
 20
56.63662100399458
 30
0.0
 40
0.45
  0
POLYLINE
  8
0
 62
0
 70
0
 66
1
 10
0.0
 20
0.0
 30
0.0
  0
VERTEX
  8
0
 10
-45.6
 20
68.25163980127186
 30
0.0
  0
VERTEX
  8
0
 10
-47.07526855708437
 20
62.74586259142417
 30
0.0
  0
SEQEND
  8
0
  0
POLYLINE
  8
0
 62
0
 70
0
 66
1
 10
0.0
 20
0.0
 30
0.0
  0
VERTEX
  8
0
 10
68.4
 20
50.75658447535157
 30
0.0
  0
VERTEX
  8
0
 10
69.87526855708437
 20
45.25080726550388
 30
0.0
  0
SEQEND
  8
0
  0
POLYLINE
  8
0
 62
0
 70
0
 66
1
 10
0.0
 20
0.0
 30
0.0
  0
VERTEX
  8
0
 10
45.6
 20
68.25163980127186
 30
0.0
  0
VERTEX
  8
0
 10
47.07526855708437
 20
62.74586259142417
 30
0.0
  0
SEQEND
  8
0
  0
POLYLINE
  8
0
 62
0
 70
0
 66
1
 10
0.0
 20
0.0
 30
0.0
  0
VERTEX
  8
0
 10
-45.6
 20
68.25163980127186
 30
0.0
  0
VERTEX
  8
0
 10
-44.12473144291563
 20
73.75741701111956
 30
0.0
  0
SEQEND
  8
0
  0
POLYLINE
  8
0
 62
0
 70
0
 66
1
 10
0.0
 20
0.0
 30
0.0
  0
VERTEX
  8
0
 10
45.6
 20
68.25163980127186
 30
0.0
  0
VERTEX
  8
0
 10
44.12473144291563
 20
73.75741701111956
 30
0.0
  0
SEQEND
  8
0
  0
POLYLINE
  8
0
 62
0
 70
1
 66
1
 10
0.0
 20
0.0
 30
0.0
  0
VERTEX
  8
0
 10
35.01715912851783
 20
66.39948850752072
 30
0.0
  0
VERTEX
  8
0
 10
35.50891531421262
 20
64.56422943757148
 30
0.0
  0
VERTEX
  8
0
 10
39.082840871482176
 20
65.5218599044508
 30
0.0
  0
VERTEX
  8
0
 10
38.591084685787386
 20
67.35711897440004
 30
0.0
  0
SEQEND
  8
0
  0
POLYLINE
  8
0
 62
0
 70
0
 66
1
 10
0.0
 20
0.0
 30
0.0
  0
VERTEX
  8
0
 10
22.8
 20
85.74669512719215
 30
0.0
  0
VERTEX
  8
0
 10
21.324731442915635
 20
91.25247233703985
 30
0.0
  0
SEQEND
  8
0
  0
POLYLINE
  8
0
 62
0
 70
0
 66
1
 10
0.0
 20
0.0
 30
0.0
  0
VERTEX
  8
0
 10
0.0
 20
44.23100816973773
 30
0.0
  0
VERTEX
  8
0
 10
0.0
 20
56.033156626412676
 30
0.0
  0
SEQEND
  8
0
  0
POLYLINE
  8
0
 62
0
 70
0
 66
1
 10
0.0
 20
0.0
 30
0.0
  0
VERTEX
  8
0
 10
0.0
 20
20.62671125638783
 30
0.0
  0
VERTEX
  8
0
 10
-79.80000000000001
 20
42.00905681239142
 30
0.0
  0
SEQEND
  8
0
  0
POLYLINE
  8
0
 62
0
 70
0
 66
1
 10
0.0
 20
0.0
 30
0.0
  0
VERTEX
  8
0
 10
-5.7
 20
0.0
 30
0.0
  0
VERTEX
  8
0
 10
5.7
 20
0.0
 30
0.0
  0
SEQEND
  8
0
  0
CIRCLE
  8
0
 62
0
 10
29.97526855708437
 20
46.36178294417703
 30
0.0
 40
0.45
  0
POLYLINE
  8
0
 62
0
 70
0
 66
1
 10
0.0
 20
0.0
 30
0.0
  0
VERTEX
  8
0
 10
-22.8
 20
85.74669512719215
 30
0.0
  0
VERTEX
  8
0
 10
-24.27526855708437
 20
80.24091791734446
 30
0.0
  0
SEQEND
  8
0
  0
POLYLINE
  8
0
 62
0
 70
1
 66
1
 10
0.0
 20
0.0
 30
0.0
  0
VERTEX
  8
0
 10
12.217159128517828
 20
83.894543833441
 30
0.0
  0
VERTEX
  8
0
 10
12.708915314212618
 20
82.05928476349177
 30
0.0
  0
VERTEX
  8
0
 10
16.282840871482172
 20
83.0169152303711
 30
0.0
  0
VERTEX
  8
0
 10
15.791084685787382
 20
84.85217430032033
 30
0.0
  0
SEQEND
  8
0
  0
POLYLINE
  8
0
 62
0
 70
0
 66
1
 10
0.0
 20
0.0
 30
0.0
  0
VERTEX
  8
0
 10
91.2
 20
33.26152914943127
 30
0.0
  0
VERTEX
  8
0
 10
92.67526855708437
 20
27.75575193958358
 30
0.0
  0
SEQEND
  8
0
  0
POLYLINE
  8
0
 62
0
 70
0
 66
1
 10
0.0
 20
0.0
 30
0.0
  0
VERTEX
  8
0
 10
-57.00000000000001
 20
59.504112138311726
 30
0.0
  0
VERTEX
  8
0
 10
-55.52473144291564
 20
65.00988934815942
 30
0.0
  0
SEQEND
  8
0
  0
CIRCLE
  8
0
 62
0
 10
-18.575268557084367
 20
66.91145906381212
 30
0.0
 40
0.45
  0
POLYLINE
  8
0
 62
0
 70
0
 66
1
 10
0.0
 20
0.0
 30
0.0
  0
VERTEX
  8
0
 10
0.0
 20
8.82456279971288
 30
0.0
  0
VERTEX
  8
0
 10
91.2
 20
33.26152914943127
 30
0.0
  0
SEQEND
  8
0
  0
POLYLINE
  8
0
 62
0
 70
0
 66
1
 10
0.0
 20
0.0
 30
0.0
  0
VERTEX
  8
0
 10
-91.2
 20
33.26152914943127
 30
0.0
  0
VERTEX
  8
0
 10
-92.67526855708437
 20
27.75575193958358
 30
0.0
  0
SEQEND
  8
0
  0
POLYLINE
  8
0
 62
0
 70
0
 66
1
 10
0.0
 20
0.0
 30
0.0
  0
VERTEX
  8
0
 10
0.0
 20
79.63745353976256
 30
0.0
  0
VERTEX
  8
0
 10
-22.8
 20
85.74669512719215
 30
0.0
  0
SEQEND
  8
0
  0
POLYLINE
  8
0
 62
0
 70
0
 66
1
 10
0.0
 20
0.0
 30
0.0
  0
VERTEX
  8
0
 10
0.0
 20
91.4396019964375
 30
0.0
  0
VERTEX
  8
0
 10
11.4
 20
94.4942227901523
 30
0.0
  0
SEQEND
  8
0
  0
POLYLINE
  8
0
 62
0
 70
1
 66
1
 10
0.0
 20
0.0
 30
0.0
  0
VERTEX
  8
0
 10
-12.217159128517828
 20
83.894543833441
 30
0.0
  0
VERTEX
  8
0
 10
-12.708915314212618
 20
82.05928476349177
 30
0.0
  0
VERTEX
  8
0
 10
-16.282840871482172
 20
83.0169152303711
 30
0.0
  0
VERTEX
  8
0
 10
-15.791084685787382
 20
84.85217430032033
 30
0.0
  0
SEQEND
  8
0
  0
CIRCLE
  8
0
 62
0
 10
47.075268557084364
 20
15.537268764724384
 30
0.0
 40
0.45
  0
CIRCLE
  8
0
 62
0
 10
-29.97526855708437
 20
46.36178294417703
 30
0.0
 40
0.45
  0
POLYLINE
  8
0
 62
0
 70
0
 66
1
 10
0.0
 20
0.0
 30
0.0
  0
VERTEX
  8
0
 10
79.80000000000001
 20
42.00905681239142
 30
0.0
  0
VERTEX
  8
0
 10
78.32473144291565
 20
47.514834022239114
 30
0.0
  0
SEQEND
  8
0
  0
POLYLINE
  8
0
 62
0
 70
1
 66
1
 10
0.0
 20
0.0
 30
0.0
  0
VERTEX
  8
0
 10
0.8171591285178287
 20
92.64207149640116
 30
0.0
  0
VERTEX
  8
0
 10
1.308915314212618
 20
90.80681242645193
 30
0.0
  0
VERTEX
  8
0
 10
4.882840871482171
 20
91.76444289333125
 30
0.0
  0
VERTEX
  8
0
 10
4.391084685787382
 20
93.59970196328048
 30
0.0
  0
SEQEND
  8
0
  0
POLYLINE
  8
0
 62
0
 70
0
 66
1
 10
0.0
 20
0.0
 30
0.0
  0
VERTEX
  8
0
 10
-68.4
 20
50.75658447535157
 30
0.0
  0
VERTEX
  8
0
 10
-66.92473144291564
 20
56.26236168519927
 30
0.0
  0
SEQEND
  8
0
  0
POLYLINE
  8
0
 62
0
 70
0
 66
1
 10
0.0
 20
0.0
 30
0.0
  0
VERTEX
  8
0
 10
11.4
 20
94.4942227901523
 30
0.0
  0
VERTEX
  8
0
 10
9.924731442915633
 20
100.0
 30
0.0
  0
SEQEND
  8
0
  0
POLYLINE
  8
0
 62
0
 70
1
 66
1
 10
0.0
 20
0.0
 30
0.0
  0
VERTEX
  8
0
 10
-0.95
 20
7.0016113425062105
 30
0.0
  0
VERTEX
  8
0
 10
-0.95
 20
10.70161134250621
 30
0.0
  0
VERTEX
  8
0
 10
0.95
 20
10.70161134250621
 30
0.0
  0
VERTEX
  8
0
 10
0.95
 20
7.0016113425062105
 30
0.0
  0
SEQEND
  8
0
  0
POLYLINE
  8
0
 62
0
 70
0
 66
1
 10
0.0
 20
0.0
 30
0.0
  0
VERTEX
  8
0
 10
0.0
 20
79.63745353976256
 30
0.0
  0
VERTEX
  8
0
 10
0.0
 20
91.4396019964375
 30
0.0
  0
SEQEND
  8
0
  0
POLYLINE
  8
0
 62
0
 70
0
 66
1
 10
0.0
 20
0.0
 30
0.0
  0
VERTEX
  8
0
 10
0.0
 20
56.033156626412676
 30
0.0
  0
VERTEX
  8
0
 10
45.6
 20
68.25163980127186
 30
0.0
  0
SEQEND
  8
0
  0
POLYLINE
  8
0
 62
0
 70
0
 66
1
 10
0.0
 20
0.0
 30
0.0
  0
VERTEX
  8
0
 10
0.0
 20
91.4396019964375
 30
0.0
  0
VERTEX
  8
0
 10
-11.4
 20
94.4942227901523
 30
0.0
  0
SEQEND
  8
0
  0
POLYLINE
  8
0
 62
0
 70
0
 66
1
 10
0.0
 20
0.0
 30
0.0
  0
VERTEX
  8
0
 10
91.2
 20
33.26152914943127
 30
0.0
  0
VERTEX
  8
0
 10
89.72473144291564
 20
38.76730635927896
 30
0.0
  0
SEQEND
  8
0
  0
POLYLINE
  8
0
 62
0
 70
0
 66
1
 10
0.0
 20
0.0
 30
0.0
  0
VERTEX
  8
0
 10
-91.2
 20
33.26152914943127
 30
0.0
  0
VERTEX
  8
0
 10
-89.72473144291564
 20
38.76730635927896
 30
0.0
  0
SEQEND
  8
0
  0
CIRCLE
  8
0
 62
0
 10
18.575268557084367
 20
66.91145906381212
 30
0.0
 40
0.45
  0
POLYLINE
  8
0
 62
0
 70
0
 66
1
 10
0.0
 20
0.0
 30
0.0
  0
VERTEX
  8
0
 10
0.0
 20
8.82456279971288
 30
0.0
  0
VERTEX
  8
0
 10
-91.2
 20
33.26152914943127
 30
0.0
  0
SEQEND
  8
0
  0
POLYLINE
  8
0
 62
0
 70
1
 66
1
 10
0.0
 20
0.0
 30
0.0
  0
VERTEX
  8
0
 10
80.61715912851784
 20
31.40937785568012
 30
0.0
  0
VERTEX
  8
0
 10
81.10891531421262
 20
29.57411878573089
 30
0.0
  0
VERTEX
  8
0
 10
84.68284087148217
 20
30.531749252610215
 30
0.0
  0
VERTEX
  8
0
 10
84.19108468578739
 20
32.36700832255944
 30
0.0
  0
SEQEND
  8
0
  0
CIRCLE
  8
0
 62
0
 10
-12.875268557084366
 20
77.18629712362967
 30
0.0
 40
0.45
  0
POLYLINE
  8
0
 62
0
 70
1
 66
1
 10
0.0
 20
0.0
 30
0.0
  0
VERTEX
  8
0
 10
-57.817159128517844
 20
48.90443318160043
 30
0.0
  0
VERTEX
  8
0
 10
-58.30891531421263
 20
47.0691741116512
 30
0.0
  0
VERTEX
  8
0
 10
-61.88284087148219
 20
48.02680457853053
 30
0.0
  0
VERTEX
  8
0
 10
-61.3910846857874
 20
49.86206364847976
 30
0.0
  0
SEQEND
  8
0
  0
POLYLINE
  8
0
 62
0
 70
0
 66
1
 10
0.0
 20
0.0
 30
0.0
  0
VERTEX
  8
0
 10
-79.80000000000001
 20
42.00905681239142
 30
0.0
  0
VERTEX
  8
0
 10
-78.32473144291565
 20
47.514834022239114
 30
0.0
  0
SEQEND
  8
0
  0
POLYLINE
  8
0
 62
0
 70
1
 66
1
 10
0.0
 20
0.0
 30
0.0
  0
VERTEX
  8
0
 10
-69.21715912851785
 20
40.15690551864028
 30
0.0
  0
VERTEX
  8
0
 10
-69.70891531421263
 20
38.32164644869105
 30
0.0
  0
VERTEX
  8
0
 10
-73.28284087148218
 20
39.27927691557038
 30
0.0
  0
VERTEX
  8
0
 10
-72.7910846857874
 20
41.11453598551961
 30
0.0
  0
SEQEND
  8
0
  0
POLYLINE
  8
0
 62
0
 70
0
 66
1
 10
0.0
 20
0.0
 30
0.0
  0
VERTEX
  8
0
 10
68.4
 20
50.75658447535157
 30
0.0
  0
VERTEX
  8
0
 10
66.92473144291564
 20
56.26236168519927
 30
0.0
  0
SEQEND
  8
0
  0
CIRCLE
  8
0
 62
0
 10
7.175268557084366
 20
87.46113518344721
 30
0.0
 40
0.45
  0
POLYLINE
  8
0
 62
0
 70
1
 66
1
 10
0.0
 20
0.0
 30
0.0
  0
VERTEX
  8
0
 10
57.817159128517844
 20
48.90443318160043
 30
0.0
  0
VERTEX
  8
0
 10
58.30891531421263
 20
47.0691741116512
 30
0.0
  0
VERTEX
  8
0
 10
61.88284087148219
 20
48.02680457853053
 30
0.0
  0
VERTEX
  8
0
 10
61.3910846857874
 20
49.86206364847976
 30
0.0
  0
SEQEND
  8
0
  0
POLYLINE
  8
0
 62
0
 70
0
 66
1
 10
0.0
 20
0.0
 30
0.0
  0
VERTEX
  8
0
 10
79.80000000000001
 20
42.00905681239142
 30
0.0
  0
VERTEX
  8
0
 10
81.27526855708437
 20
36.50327960254373
 30
0.0
  0
SEQEND
  8
0
  0
POLYLINE
  8
0
 62
0
 70
1
 66
1
 10
0.0
 20
0.0
 30
0.0
  0
VERTEX
  8
0
 10
-0.8171591285178287
 20
92.64207149640116
 30
0.0
  0
VERTEX
  8
0
 10
-1.308915314212618
 20
90.80681242645193
 30
0.0
  0
VERTEX
  8
0
 10
-4.882840871482171
 20
91.76444289333125
 30
0.0
  0
VERTEX
  8
0
 10
-4.391084685787382
 20
93.59970196328048
 30
0.0
  0
SEQEND
  8
0
  0
POLYLINE
  8
0
 62
0
 70
0
 66
1
 10
0.0
 20
0.0
 30
0.0
  0
VERTEX
  8
0
 10
34.2
 20
76.99916746423202
 30
0.0
  0
VERTEX
  8
0
 10
35.67526855708437
 20
71.49339025438432
 30
0.0
  0
SEQEND
  8
0
  0
POLYLINE
  8
0
 62
0
 70
1
 66
1
 10
0.0
 20
0.0
 30
0.0
  0
VERTEX
  8
0
 10
-35.01715912851783
 20
66.39948850752072
 30
0.0
  0
VERTEX
  8
0
 10
-35.50891531421262
 20
64.56422943757148
 30
0.0
  0
VERTEX
  8
0
 10
-39.082840871482176
 20
65.5218599044508
 30
0.0
  0
VERTEX
  8
0
 10
-38.591084685787386
 20
67.35711897440004
 30
0.0
  0
SEQEND
  8
0
  0
CIRCLE
  8
0
 62
0
 10
-8.55
 20
64.22519645003624
 30
0.0
 40
1.6
  0
ENDSEC
  0
EOF
