  0
SECTION
  2
HEADER
  9
$ACADVER
  1
AC1009
  9
$INSBASE
 10
0.0
 20
0.0
 30
0.0
  9
$EXTMIN
 10
0.0
 20
0.0
 30
0.0
  9
$EXTMAX
 10
0.0
 20
0.0
 30
0.0
  0
ENDSEC
  0
SECTION
  2
TABLES
  0
TABLE
  2
VPORT
 70
0
  0
ENDTAB
  0
TABLE
  2
LTYPE
 70
1
  0
LTYPE
  2
CONTINUOUS
 70
0
  3
Solid line
 72
65
 73
0
 40
0.0
  0
ENDTAB
  0
TABLE
  2
LAYER
 70
1
  0
LAYER
  2
0
 70
64
 62
7
  6
continuous
  0
ENDTAB
  0
TABLE
  2
STYLE
 70
1
  0
STYLE
  2
STANDARD
 70
0
 40
0
 41
1.0
 50
0.0
 71
0
 42
1
 3
ARIAL.TTF
 4

  0
ENDTAB
  0
TABLE
  2
VIEW
 70
0
  0
ENDTAB
  0
ENDSEC
  0
SECTION
  2
BLOCKS
  0
ENDSEC
  0
SECTION
  2
ENTITIES
  0
POLYLINE
  8
Borders
 62
0
 70
0
 66
1
 10
0.0
 20
0.0
 30
0.0
  0
VERTEX
  8
Borders
 10
-93.78796829914256
 20
23.603099968653584
 30
0.0
  0
VERTEX
  8
Borders
 10
-5.7
 20
0.0
 30
0.0
  0
SEQEND
  8
Borders
  0
POLYLINE
  8
Borders
 62
0
 70
0
 66
1
 10
0.0
 20
0.0
 30
0.0
  0
VERTEX
  8
Borders
 10
44.12473144291563
 20
73.75741701111956
 30
0.0
  0
VERTEX
  8
Borders
 10
35.67526855708437
 20
71.49339025438432
 30
0.0
  0
SEQEND
  8
Borders
  0
POLYLINE
  8
Borders
 62
0
 70
0
 66
1
 10
0.0
 20
0.0
 30
0.0
  0
VERTEX
  8
Borders
 10
-55.52473144291564
 20
65.00988934815942
 30
0.0
  0
VERTEX
  8
Borders
 10
-47.07526855708437
 20
62.74586259142417
 30
0.0
  0
SEQEND
  8
Borders
  0
POLYLINE
  8
Borders
 62
0
 70
0
 66
1
 10
0.0
 20
0.0
 30
0.0
  0
VERTEX
  8
Borders
 10
-32.72473144291563
 20
82.50494467407971
 30
0.0
  0
VERTEX
  8
Borders
 10
-24.27526855708437
 20
80.24091791734446
 30
0.0
  0
SEQEND
  8
Borders
  0
POLYLINE
  8
Borders
 62
0
 70
0
 66
1
 10
0.0
 20
0.0
 30
0.0
  0
VERTEX
  8
Borders
 10
-34.2
 20
76.99916746423202
 30
0.0
  0
VERTEX
  8
Borders
 10
-35.67526855708437
 20
71.49339025438432
 30
0.0
  0
SEQEND
  8
Borders
  0
POLYLINE
  8
Borders
 62
0
 70
0
 66
1
 10
0.0
 20
0.0
 30
0.0
  0
VERTEX
  8
Borders
 10
-57.00000000000001
 20
59.504112138311726
 30
0.0
  0
VERTEX
  8
Borders
 10
-58.47526855708438
 20
53.99833492846403
 30
0.0
  0
SEQEND
  8
Borders
  0
POLYLINE
  8
Borders
 62
0
 70
0
 66
1
 10
0.0
 20
0.0
 30
0.0
  0
VERTEX
  8
Borders
 10
-22.8
 20
85.74669512719215
 30
0.0
  0
VERTEX
  8
Borders
 10
-21.324731442915635
 20
91.25247233703985
 30
0.0
  0
SEQEND
  8
Borders
  0
POLYLINE
  8
Borders
 62
0
 70
0
 66
1
 10
0.0
 20
0.0
 30
0.0
  0
VERTEX
  8
Borders
 10
89.72473144291564
 20
38.76730635927896
 30
0.0
  0
VERTEX
  8
Borders
 10
81.27526855708437
 20
36.50327960254373
 30
0.0
  0
SEQEND
  8
Borders
  0
POLYLINE
  8
Borders
 62
0
 70
0
 66
1
 10
0.0
 20
0.0
 30
0.0
  0
VERTEX
  8
Borders
 10
-22.8
 20
85.74669512719215
 30
0.0
  0
VERTEX
  8
Borders
 10
-24.27526855708437
 20
80.24091791734446
 30
0.0
  0
SEQEND
  8
Borders
  0
POLYLINE
  8
Borders
 62
0
 70
0
 66
1
 10
0.0
 20
0.0
 30
0.0
  0
VERTEX
  8
Borders
 10
-57.00000000000001
 20
59.504112138311726
 30
0.0
  0
VERTEX
  8
Borders
 10
-55.52473144291564
 20
65.00988934815942
 30
0.0
  0
SEQEND
  8
Borders
  0
POLYLINE
  8
Borders
 62
0
 70
0
 66
1
 10
0.0
 20
0.0
 30
0.0
  0
VERTEX
  8
Borders
 10
68.4
 20
50.75658447535157
 30
0.0
  0
VERTEX
  8
Borders
 10
66.92473144291564
 20
56.26236168519927
 30
0.0
  0
SEQEND
  8
Borders
  0
POLYLINE
  8
Borders
 62
0
 70
0
 66
1
 10
0.0
 20
0.0
 30
0.0
  0
VERTEX
  8
Borders
 10
-66.92473144291564
 20
56.26236168519927
 30
0.0
  0
VERTEX
  8
Borders
 10
-58.47526855708438
 20
53.99833492846403
 30
0.0
  0
SEQEND
  8
Borders
  0
POLYLINE
  8
Borders
 62
0
 70
0
 66
1
 10
0.0
 20
0.0
 30
0.0
  0
VERTEX
  8
Borders
 10
34.2
 20
76.99916746423202
 30
0.0
  0
VERTEX
  8
Borders
 10
32.72473144291563
 20
82.50494467407971
 30
0.0
  0
SEQEND
  8
Borders
  0
POLYLINE
  8
Borders
 62
0
 70
0
 66
1
 10
0.0
 20
0.0
 30
0.0
  0
VERTEX
  8
Borders
 10
-45.6
 20
68.25163980127186
 30
0.0
  0
VERTEX
  8
Borders
 10
-44.12473144291563
 20
73.75741701111956
 30
0.0
  0
SEQEND
  8
Borders
  0
POLYLINE
  8
Borders
 62
0
 70
0
 66
1
 10
0.0
 20
0.0
 30
0.0
  0
VERTEX
  8
Borders
 10
11.4
 20
94.4942227901523
 30
0.0
  0
VERTEX
  8
Borders
 10
12.875268557084368
 20
88.98844558030461
 30
0.0
  0
SEQEND
  8
Borders
  0
POLYLINE
  8
Borders
 62
0
 70
0
 66
1
 10
0.0
 20
0.0
 30
0.0
  0
VERTEX
  8
Borders
 10
79.80000000000001
 20
42.00905681239142
 30
0.0
  0
VERTEX
  8
Borders
 10
81.27526855708437
 20
36.50327960254373
 30
0.0
  0
SEQEND
  8
Borders
  0
POLYLINE
  8
Borders
 62
0
 70
0
 66
1
 10
0.0
 20
0.0
 30
0.0
  0
VERTEX
  8
Borders
 10
34.2
 20
76.99916746423202
 30
0.0
  0
VERTEX
  8
Borders
 10
35.67526855708437
 20
71.49339025438432
 30
0.0
  0
SEQEND
  8
Borders
  0
POLYLINE
  8
Borders
 62
0
 70
0
 66
1
 10
0.0
 20
0.0
 30
0.0
  0
VERTEX
  8
Borders
 10
91.2
 20
33.26152914943127
 30
0.0
  0
VERTEX
  8
Borders
 10
89.72473144291564
 20
38.76730635927896
 30
0.0
  0
SEQEND
  8
Borders
  0
POLYLINE
  8
Borders
 62
0
 70
0
 66
1
 10
0.0
 20
0.0
 30
0.0
  0
VERTEX
  8
Borders
 10
22.8
 20
85.74669512719215
 30
0.0
  0
VERTEX
  8
Borders
 10
21.324731442915635
 20
91.25247233703985
 30
0.0
  0
SEQEND
  8
Borders
  0
POLYLINE
  8
Borders
 62
0
 70
0
 66
1
 10
0.0
 20
0.0
 30
0.0
  0
VERTEX
  8
Borders
 10
57.00000000000001
 20
59.504112138311726
 30
0.0
  0
VERTEX
  8
Borders
 10
58.47526855708438
 20
53.99833492846403
 30
0.0
  0
SEQEND
  8
Borders
  0
POLYLINE
  8
Borders
 62
0
 70
0
 66
1
 10
0.0
 20
0.0
 30
0.0
  0
VERTEX
  8
Borders
 10
22.8
 20
85.74669512719215
 30
0.0
  0
VERTEX
  8
Borders
 10
24.27526855708437
 20
80.24091791734446
 30
0.0
  0
SEQEND
  8
Borders
  0
POLYLINE
  8
Borders
 62
0
 70
0
 66
1
 10
0.0
 20
0.0
 30
0.0
  0
VERTEX
  8
Borders
 10
-34.2
 20
76.99916746423202
 30
0.0
  0
VERTEX
  8
Borders
 10
-32.72473144291563
 20
82.50494467407971
 30
0.0
  0
SEQEND
  8
Borders
  0
POLYLINE
  8
Borders
 62
0
 70
0
 66
1
 10
0.0
 20
0.0
 30
0.0
  0
VERTEX
  8
Borders
 10
-11.4
 20
94.4942227901523
 30
0.0
  0
VERTEX
  8
Borders
 10
-12.875268557084368
 20
88.98844558030461
 30
0.0
  0
SEQEND
  8
Borders
  0
POLYLINE
  8
Borders
 62
0
 70
0
 66
1
 10
0.0
 20
0.0
 30
0.0
  0
VERTEX
  8
Borders
 10
57.00000000000001
 20
59.504112138311726
 30
0.0
  0
VERTEX
  8
Borders
 10
55.52473144291564
 20
65.00988934815942
 30
0.0
  0
SEQEND
  8
Borders
  0
POLYLINE
  8
Borders
 62
0
 70
0
 66
1
 10
0.0
 20
0.0
 30
0.0
  0
VERTEX
  8
Borders
 10
-45.6
 20
68.25163980127186
 30
0.0
  0
VERTEX
  8
Borders
 10
-47.07526855708437
 20
62.74586259142417
 30
0.0
  0
SEQEND
  8
Borders
  0
POLYLINE
  8
Borders
 62
0
 70
0
 66
1
 10
0.0
 20
0.0
 30
0.0
  0
VERTEX
  8
Borders
 10
-79.80000000000001
 20
42.00905681239142
 30
0.0
  0
VERTEX
  8
Borders
 10
-81.27526855708437
 20
36.50327960254373
 30
0.0
  0
SEQEND
  8
Borders
  0
POLYLINE
  8
Borders
 62
0
 70
0
 66
1
 10
0.0
 20
0.0
 30
0.0
  0
VERTEX
  8
Borders
 10
93.78796829914256
 20
23.60309996865358
 30
0.0
  0
VERTEX
  8
Borders
 10
91.2
 20
33.26152914943127
 30
0.0
  0
SEQEND
  8
Borders
  0
POLYLINE
  8
Borders
 62
0
 70
0
 66
1
 10
0.0
 20
0.0
 30
0.0
  0
VERTEX
  8
Borders
 10
11.4
 20
94.4942227901523
 30
0.0
  0
VERTEX
  8
Borders
 10
9.924731442915633
 20
100.0
 30
0.0
  0
SEQEND
  8
Borders
  0
POLYLINE
  8
Borders
 62
0
 70
0
 66
1
 10
0.0
 20
0.0
 30
0.0
  0
VERTEX
  8
Borders
 10
55.52473144291564
 20
65.00988934815942
 30
0.0
  0
VERTEX
  8
Borders
 10
47.07526855708437
 20
62.74586259142417
 30
0.0
  0
SEQEND
  8
Borders
  0
POLYLINE
  8
Borders
 62
0
 70
0
 66
1
 10
0.0
 20
0.0
 30
0.0
  0
VERTEX
  8
Borders
 10
-9.924731442915633
 20
100.0
 30
0.0
  0
VERTEX
  8
Borders
 10
9.924731442915633
 20
100.0
 30
0.0
  0
SEQEND
  8
Borders
  0
POLYLINE
  8
Borders
 62
0
 70
0
 66
1
 10
0.0
 20
0.0
 30
0.0
  0
VERTEX
  8
Borders
 10
-68.4
 20
50.75658447535157
 30
0.0
  0
VERTEX
  8
Borders
 10
-69.87526855708437
 20
45.25080726550388
 30
0.0
  0
SEQEND
  8
Borders
  0
POLYLINE
  8
Borders
 62
0
 70
0
 66
1
 10
0.0
 20
0.0
 30
0.0
  0
VERTEX
  8
Borders
 10
68.4
 20
50.75658447535157
 30
0.0
  0
VERTEX
  8
Borders
 10
69.87526855708437
 20
45.25080726550388
 30
0.0
  0
SEQEND
  8
Borders
  0
POLYLINE
  8
Borders
 62
0
 70
0
 66
1
 10
0.0
 20
0.0
 30
0.0
  0
VERTEX
  8
Borders
 10
93.78796829914256
 20
23.603099968653584
 30
0.0
  0
VERTEX
  8
Borders
 10
5.7
 20
0.0
 30
0.0
  0
SEQEND
  8
Borders
  0
POLYLINE
  8
Borders
 62
0
 70
0
 66
1
 10
0.0
 20
0.0
 30
0.0
  0
VERTEX
  8
Borders
 10
21.324731442915635
 20
91.25247233703985
 30
0.0
  0
VERTEX
  8
Borders
 10
12.875268557084368
 20
88.98844558030461
 30
0.0
  0
SEQEND
  8
Borders
  0
POLYLINE
  8
Borders
 62
0
 70
0
 66
1
 10
0.0
 20
0.0
 30
0.0
  0
VERTEX
  8
Borders
 10
45.6
 20
68.25163980127186
 30
0.0
  0
VERTEX
  8
Borders
 10
47.07526855708437
 20
62.74586259142417
 30
0.0
  0
SEQEND
  8
Borders
  0
POLYLINE
  8
Borders
 62
0
 70
0
 66
1
 10
0.0
 20
0.0
 30
0.0
  0
VERTEX
  8
Borders
 10
-11.4
 20
94.4942227901523
 30
0.0
  0
VERTEX
  8
Borders
 10
-9.924731442915633
 20
100.0
 30
0.0
  0
SEQEND
  8
Borders
  0
POLYLINE
  8
Borders
 62
0
 70
0
 66
1
 10
0.0
 20
0.0
 30
0.0
  0
VERTEX
  8
Borders
 10
45.6
 20
68.25163980127186
 30
0.0
  0
VERTEX
  8
Borders
 10
44.12473144291563
 20
73.75741701111956
 30
0.0
  0
SEQEND
  8
Borders
  0
POLYLINE
  8
Borders
 62
0
 70
0
 66
1
 10
0.0
 20
0.0
 30
0.0
  0
VERTEX
  8
Borders
 10
78.32473144291565
 20
47.514834022239114
 30
0.0
  0
VERTEX
  8
Borders
 10
69.87526855708437
 20
45.25080726550388
 30
0.0
  0
SEQEND
  8
Borders
  0
POLYLINE
  8
Borders
 62
0
 70
0
 66
1
 10
0.0
 20
0.0
 30
0.0
  0
VERTEX
  8
Borders
 10
-93.78796829914256
 20
23.60309996865358
 30
0.0
  0
VERTEX
  8
Borders
 10
-91.2
 20
33.26152914943127
 30
0.0
  0
SEQEND
  8
Borders
  0
POLYLINE
  8
Borders
 62
0
 70
0
 66
1
 10
0.0
 20
0.0
 30
0.0
  0
VERTEX
  8
Borders
 10
-91.2
 20
33.26152914943127
 30
0.0
  0
VERTEX
  8
Borders
 10
-89.72473144291564
 20
38.76730635927896
 30
0.0
  0
SEQEND
  8
Borders
  0
POLYLINE
  8
Borders
 62
0
 70
0
 66
1
 10
0.0
 20
0.0
 30
0.0
  0
VERTEX
  8
Borders
 10
-68.4
 20
50.75658447535157
 30
0.0
  0
VERTEX
  8
Borders
 10
-66.92473144291564
 20
56.26236168519927
 30
0.0
  0
SEQEND
  8
Borders
  0
POLYLINE
  8
Borders
 62
0
 70
0
 66
1
 10
0.0
 20
0.0
 30
0.0
  0
VERTEX
  8
Borders
 10
66.92473144291564
 20
56.26236168519927
 30
0.0
  0
VERTEX
  8
Borders
 10
58.47526855708438
 20
53.99833492846403
 30
0.0
  0
SEQEND
  8
Borders
  0
POLYLINE
  8
Borders
 62
0
 70
0
 66
1
 10
0.0
 20
0.0
 30
0.0
  0
VERTEX
  8
Borders
 10
-79.80000000000001
 20
42.00905681239142
 30
0.0
  0
VERTEX
  8
Borders
 10
-78.32473144291565
 20
47.514834022239114
 30
0.0
  0
SEQEND
  8
Borders
  0
POLYLINE
  8
Borders
 62
0
 70
0
 66
1
 10
0.0
 20
0.0
 30
0.0
  0
VERTEX
  8
Borders
 10
-78.32473144291565
 20
47.514834022239114
 30
0.0
  0
VERTEX
  8
Borders
 10
-69.87526855708437
 20
45.25080726550388
 30
0.0
  0
SEQEND
  8
Borders
  0
POLYLINE
  8
Borders
 62
0
 70
0
 66
1
 10
0.0
 20
0.0
 30
0.0
  0
VERTEX
  8
Borders
 10
79.80000000000001
 20
42.00905681239142
 30
0.0
  0
VERTEX
  8
Borders
 10
78.32473144291565
 20
47.514834022239114
 30
0.0
  0
SEQEND
  8
Borders
  0
POLYLINE
  8
Borders
 62
0
 70
0
 66
1
 10
0.0
 20
0.0
 30
0.0
  0
VERTEX
  8
Borders
 10
32.72473144291563
 20
82.50494467407971
 30
0.0
  0
VERTEX
  8
Borders
 10
24.27526855708437
 20
80.24091791734445
 30
0.0
  0
SEQEND
  8
Borders
  0
POLYLINE
  8
Borders
 62
0
 70
0
 66
1
 10
0.0
 20
0.0
 30
0.0
  0
VERTEX
  8
Borders
 10
-21.324731442915635
 20
91.25247233703985
 30
0.0
  0
VERTEX
  8
Borders
 10
-12.875268557084368
 20
88.98844558030461
 30
0.0
  0
SEQEND
  8
Borders
  0
POLYLINE
  8
Borders
 62
0
 70
0
 66
1
 10
0.0
 20
0.0
 30
0.0
  0
VERTEX
  8
Borders
 10
-5.7
 20
0.0
 30
0.0
  0
VERTEX
  8
Borders
 10
5.7
 20
0.0
 30
0.0
  0
SEQEND
  8
Borders
  0
POLYLINE
  8
Borders
 62
0
 70
0
 66
1
 10
0.0
 20
0.0
 30
0.0
  0
VERTEX
  8
Borders
 10
-89.72473144291564
 20
38.76730635927896
 30
0.0
  0
VERTEX
  8
Borders
 10
-81.27526855708437
 20
36.50327960254373
 30
0.0
  0
SEQEND
  8
Borders
  0
POLYLINE
  8
Borders
 62
0
 70
0
 66
1
 10
0.0
 20
0.0
 30
0.0
  0
VERTEX
  8
Borders
 10
-44.12473144291563
 20
73.75741701111956
 30
0.0
  0
VERTEX
  8
Borders
 10
-35.67526855708437
 20
71.49339025438432
 30
0.0
  0
SEQEND
  8
Borders
  0
ENDSEC
  0
EOF
